<svg xmlns="http://www.w3.org/2000/svg" viewBox="0 0 80 87.34"><defs><style>.cls-1{fill:#c8645a;}.cls-2{fill:#fff;}</style></defs><title>anomaly-icon-with-icon</title><g id="Layer_2" data-name="Layer 2"><g id="_003_anomaly_detail" data-name="003 anomaly detail"><path class="cls-1" d="M80,57.37V30a16.27,16.27,0,0,0-8.14-14.09L48.14,2.18a16.27,16.27,0,0,0-16.28,0L8.14,15.88A16.27,16.27,0,0,0,0,30v27.4A16.26,16.26,0,0,0,8.14,71.46l23.72,13.7a16.27,16.27,0,0,0,16.28,0l23.72-13.7A16.26,16.26,0,0,0,80,57.37Z"/><path class="cls-2" d="M58.75,30.24V54H21.25V30.24h37.5m1-1H20.25V55h39.5V29.24Z"/><path class="cls-2" d="M62.5,55a2.07,2.07,0,0,1-2.07,2.07H19.57A2.07,2.07,0,0,1,17.5,55h45m1-1h-47v1a3.07,3.07,0,0,0,3.07,3.07H60.43A3.07,3.07,0,0,0,63.5,55V54Z"/></g></g></svg>