<svg xmlns="http://www.w3.org/2000/svg" viewBox="0 0 70 76.42"><defs><style>.cls-1{fill:gray;}.cls-2{fill:#fff;}</style></defs><title>big-normal-withinnerIcon</title><g id="Layer_2" data-name="Layer 2"><g id="_003_anomaly_detail" data-name="003 anomaly detail"><path class="cls-1" d="M70,50.2v-24a14.25,14.25,0,0,0-7.12-12.34l-20.76-12a14.21,14.21,0,0,0-14.24,0l-20.76,12A14.25,14.25,0,0,0,0,26.23v24A14.22,14.22,0,0,0,7.12,62.53l20.76,12a14.26,14.26,0,0,0,14.24,0l20.76-12A14.22,14.22,0,0,0,70,50.2Z"/><path class="cls-2" d="M50.83,26.87V46.93H19.17V26.87H50.83m1-1H18.17V47.93H51.83V25.87Z"/><path class="cls-2" d="M54,47.81a1.74,1.74,0,0,1-1.75,1.74H17.75A1.74,1.74,0,0,1,16,47.81H54m1-1H15v1a2.75,2.75,0,0,0,2.75,2.74h34.5A2.75,2.75,0,0,0,55,47.81v-1Z"/></g></g></svg>