<svg xmlns="http://www.w3.org/2000/svg" viewBox="0 0 26.76 29.22"><defs><style>.cls-1{fill:#999;}.cls-2{fill:#fff;}</style></defs><title>pause-btn</title><g id="Layer_2" data-name="Layer 2"><g id="_003_anomaly_detail" data-name="003 anomaly detail"><path class="cls-1" d="M26.76,19.19V10A5.43,5.43,0,0,0,24,5.31L16.1.73a5.45,5.45,0,0,0-5.44,0L2.72,5.31A5.45,5.45,0,0,0,0,10v9.16a5.46,5.46,0,0,0,2.72,4.72l7.94,4.58a5.45,5.45,0,0,0,5.44,0L24,23.91A5.44,5.44,0,0,0,26.76,19.19Z"/><rect class="cls-2" x="4.38" y="13.11" width="12" height="3" rx="1" ry="1" transform="translate(-4.23 24.99) rotate(-90)"/><rect class="cls-2" x="10.38" y="13.11" width="12" height="3" rx="1" ry="1" transform="translate(1.77 30.99) rotate(-90)"/></g></g></svg>