<?xml version="1.0" standalone="no"?>
<!DOCTYPE svg PUBLIC "-//W3C//DTD SVG 20010904//EN"
 "http://www.w3.org/TR/2001/REC-SVG-20010904/DTD/svg10.dtd">
<svg version="1.0" xmlns="http://www.w3.org/2000/svg"
 width="2109.000000pt" height="2119.000000pt" viewBox="0 0 2109.000000 2119.000000"
 preserveAspectRatio="xMidYMid meet">

<g transform="translate(0.000000,2119.000000) scale(0.100000,-0.100000)"
fill="#000000" stroke="none">
<path d="M10281 21179 c-516 -33 -1043 -170 -1506 -393 -226 -109 -6633 -3494
-6790 -3587 -516 -307 -972 -746 -1312 -1261 -303 -461 -522 -1013 -612 -1548
-60 -353 -56 -77 -56 -3795 0 -3210 1 -3398 18 -3540 78 -644 279 -1219 610
-1745 353 -560 865 -1049 1437 -1373 226 -128 6648 -3511 6772 -3568 749 -341
1586 -449 2413 -309 357 61 788 201 1110 363 176 87 6606 3483 6695 3535 878
511 1536 1338 1844 2312 76 242 125 470 163 755 17 133 18 302 18 3575 l0
3435 -22 161 c-83 596 -257 1100 -554 1599 -342 574 -822 1055 -1409 1410 -95
58 -6459 3419 -6728 3554 -322 161 -667 279 -1027 350 -350 69 -706 93 -1064
70z m5479 -10004 l0 -3125 -5210 0 -5210 0 0 3125 0 3125 5210 0 5210 0 0
-3125z m958 -3487 c-4 -195 -6 -206 -35 -285 -43 -117 -87 -187 -178 -278
-129 -130 -286 -209 -469 -234 -104 -15 -10920 -15 -11020 -1 -306 45 -556
246 -652 525 -26 74 -28 94 -32 278 l-4 197 6197 0 6197 0 -4 -202z"/>
<path d="M5590 11175 l0 -2875 4955 0 4955 0 0 2875 0 2875 -4955 0 -4955 0 0
-2875z"/>
<path d="M4585 7588 c33 -218 180 -377 400 -433 53 -13 666 -15 5537 -15 3935
0 5492 3 5530 11 139 29 294 141 356 257 32 59 62 157 62 199 l0 23 -5946 0
-5946 0 7 -42z"/>
</g>
</svg>
