<svg xmlns="http://www.w3.org/2000/svg" xmlns:xlink="http://www.w3.org/1999/xlink" viewBox="0 0 172.76 22.47"><defs><style>.cls-1{fill:#010101;}.cls-2{fill:url(#linear-gradient);}.cls-3{fill:url(#linear-gradient-2);}.cls-4{fill:url(#linear-gradient-3);}.cls-5{fill:url(#linear-gradient-5);}.cls-6{fill:url(#linear-gradient-6);}.cls-7{fill:url(#linear-gradient-7);}.cls-8{fill:url(#linear-gradient-8);}.cls-9{fill:url(#linear-gradient-10);}.cls-10{fill:url(#linear-gradient-11);}.cls-11{fill:url(#linear-gradient-12);}.cls-12{fill:url(#linear-gradient-13);}.cls-13{fill:#f79421;}</style><linearGradient id="linear-gradient" x1="0.1" y1="15.25" x2="17.65" y2="-2.31" gradientUnits="userSpaceOnUse"><stop offset="0" stop-color="#f79421"/><stop offset="1" stop-color="#f15b27"/></linearGradient><linearGradient id="linear-gradient-2" x1="1.88" y1="17.03" x2="19.43" y2="-0.52" xlink:href="#linear-gradient"/><linearGradient id="linear-gradient-3" x1="7.11" y1="22.26" x2="24.66" y2="4.71" xlink:href="#linear-gradient"/><linearGradient id="linear-gradient-5" x1="5.29" y1="20.44" x2="22.84" y2="2.89" xlink:href="#linear-gradient"/><linearGradient id="linear-gradient-6" x1="4.97" y1="20.11" x2="22.52" y2="2.56" xlink:href="#linear-gradient"/><linearGradient id="linear-gradient-7" x1="4.97" y1="20.11" x2="22.52" y2="2.56" xlink:href="#linear-gradient"/><linearGradient id="linear-gradient-8" x1="8.53" y1="23.68" x2="26.08" y2="6.13" xlink:href="#linear-gradient"/><linearGradient id="linear-gradient-10" x1="2.05" y1="17.2" x2="19.61" y2="-0.35" xlink:href="#linear-gradient"/><linearGradient id="linear-gradient-11" x1="2.05" y1="17.2" x2="19.61" y2="-0.35" xlink:href="#linear-gradient"/><linearGradient id="linear-gradient-12" x1="-4.77" y1="10.38" x2="12.78" y2="-7.17" xlink:href="#linear-gradient"/><linearGradient id="linear-gradient-13" x1="-4.77" y1="10.38" x2="12.78" y2="-7.17" xlink:href="#linear-gradient"/></defs><title>Asset 2512</title><g id="Layer_2" data-name="Layer 2"><g id="Layer_1_copy" data-name="Layer 1 copy"><path class="cls-1" d="M52.89,4.25H54v9.56l9.27-9.56h1.47l-6.36,6.42L65,18.79H63.57l-6-7.35L54,15.1v3.69H52.89Z"/><path class="cls-1" d="M71.63,4.25h1.08V18.79H71.63Z"/><path class="cls-1" d="M84.84,5.25H79.77v-1H91v1H85.92V18.79H84.84Z"/><path class="cls-1" d="M97.91,4.25H104a5.77,5.77,0,0,1,4.1,1.43,3.89,3.89,0,0,1,1.1,2.71v0c0,2.43-1.81,3.82-4.26,4.15l4.8,6.21h-1.37l-4.64-6H99v6H97.91Zm6,7.54c2.43,0,4.24-1.22,4.24-3.32v0c0-2-1.54-3.18-4.18-3.18H99v6.54Z"/><path class="cls-2" d="M2.39,3.55a.33.33,0,0,1-.24-.1.34.34,0,0,1,0-.46C4,1.15,7.82,0,12.12,0s8.12,1.15,10,3a.32.32,0,0,1,0,.46.33.33,0,0,1-.47,0C19.9,1.73,16.26.65,12.12.65s-7.78,1.08-9.5,2.8A.32.32,0,0,1,2.39,3.55Z"/><path class="cls-3" d="M12.12,20.41H12C6.57,18.93.6,8.61,2.07,3.14a.32.32,0,0,1,.4-.23.31.31,0,0,1,.23.4C1.34,8.4,7.11,18.4,12.21,19.77a.33.33,0,0,1,.23.4A.33.33,0,0,1,12.12,20.41Z"/><path class="cls-4" d="M12.12,20.41a.32.32,0,0,1-.31-.24.31.31,0,0,1,.23-.4c2.36-.63,5.1-3.25,7.17-6.83s3-7.27,2.33-9.63a.32.32,0,0,1,.23-.4.31.31,0,0,1,.4.23c.68,2.52-.24,6.4-2.39,10.12s-5.05,6.46-7.57,7.14Z"/><path class="cls-2" d="M12.12,7.46a.25.25,0,0,1-.12,0L2.26,3.53a.35.35,0,0,1-.18-.43.33.33,0,0,1,.43-.18l9.61,3.86,9.61-3.86a.33.33,0,0,1,.25.61L12.24,7.44A.25.25,0,0,1,12.12,7.46Z"/><path class="cls-5" d="M12.12,20.41a.33.33,0,0,1-.33-.33V7.14a.33.33,0,0,1,.66,0V20.08A.33.33,0,0,1,12.12,20.41Z"/><circle class="cls-6" cx="21.86" cy="3.22" r="2.06"/><path class="cls-7" d="M21.86,5.61a2.39,2.39,0,1,1,2.38-2.39A2.39,2.39,0,0,1,21.86,5.61Zm0-4.12a1.73,1.73,0,1,0,1.73,1.73A1.74,1.74,0,0,0,21.86,1.49Z"/><circle class="cls-8" cx="12.12" cy="20.08" r="2.06"/><path class="cls-8" d="M12.12,22.47a2.39,2.39,0,1,1,2.39-2.39A2.39,2.39,0,0,1,12.12,22.47Zm0-4.12a1.74,1.74,0,1,0,1.73,1.73A1.74,1.74,0,0,0,12.12,18.35Z"/><circle class="cls-9" cx="12.12" cy="7.14" r="2.06"/><path class="cls-10" d="M12.12,9.52a2.39,2.39,0,1,1,2.39-2.38A2.39,2.39,0,0,1,12.12,9.52Zm0-4.12a1.74,1.74,0,1,0,1.73,1.74A1.74,1.74,0,0,0,12.12,5.4Z"/><circle class="cls-11" cx="2.39" cy="3.22" r="2.06"/><path class="cls-12" d="M2.39,5.61A2.39,2.39,0,1,1,4.77,3.22,2.39,2.39,0,0,1,2.39,5.61Zm0-4.12A1.73,1.73,0,1,0,4.12,3.22,1.74,1.74,0,0,0,2.39,1.49Z"/><path class="cls-1" d="M38.27,4.15h1l6.77,14.64H44.89l-1.84-4.07H34.47l-1.85,4.07H31.5Zm4.32,9.6L38.77,5.33l-3.85,8.42Z"/><path class="cls-1" d="M122.19,4.15h1L130,18.79h-1.18L127,14.72h-8.58l-1.85,4.07h-1.12Zm4.32,9.6-3.82-8.42-3.85,8.42Z"/></g><g id="Layer_5" data-name="Layer 5"><path class="cls-1" d="M145.06,14.72l-1.84,4.07h-1.13l6.78-14.64h1l6.77,14.64h-1.19l-1.85-4.07-.45-1-3.83-8.42-3.84,8.42Z"/><path class="cls-13" d="M168.53,18.79h-3v-1h7.21v1h-4.23Z"/><path class="cls-1" d="M148.59,15.07h-3.8v-1H154v1h-5.39Z"/><path class="cls-1" d="M161.41,18.79h-1.08V4.25h1.08Z"/><path class="cls-1" d="M172.75,12a3.39,3.39,0,0,1-3.67,3.36,3.56,3.56,0,0,1-3.52-2.17l.91-.53a2.5,2.5,0,0,0,2.61,1.64,2.31,2.31,0,1,0,0-4.59v0l0,0h-.29L168.3,9,171,5.29h-5.13v-1h6.4v1l-2.55,3.52A3.18,3.18,0,0,1,172.75,12Z"/></g></g></svg>